<?xml version="1.0" standalone="no"?>
<!DOCTYPE svg PUBLIC "-//W3C//DTD SVG 20010904//EN"
 "http://www.w3.org/TR/2001/REC-SVG-20010904/DTD/svg10.dtd">
<svg version="1.0" xmlns="http://www.w3.org/2000/svg"
 width="1166.000000pt" height="1166.000000pt" viewBox="0 0 1166.000000 1166.000000"
 preserveAspectRatio="xMidYMid meet">
<metadata>
Created by potrace 1.14, written by Peter Selinger 2001-2017
</metadata>
<g transform="translate(0.000000,1166.000000) scale(0.100000,-0.100000)"
fill="#000000" stroke="none">
<path d="M5465 11649 c-644 -54 -1233 -217 -1786 -495 -219 -109 -361 -192
-548 -318 -1134 -763 -1897 -1983 -2085 -3331 -30 -211 -37 -312 -43 -571 -18
-801 150 -1550 506 -2261 187 -376 396 -689 674 -1013 50 -58 891 -906 1869
-1885 l1778 -1780 1778 1780 c978 979 1819 1827 1869 1885 519 605 855 1259
1052 2047 132 526 166 1181 90 1758 -94 719 -361 1432 -762 2035 -352 530
-820 999 -1342 1347 -415 277 -882 493 -1350 626 -287 82 -483 121 -795 158
-200 24 -715 34 -905 18z m651 -1129 c353 -28 714 -108 1022 -226 747 -285
1354 -771 1791 -1434 324 -492 523 -1050 586 -1647 19 -181 19 -566 0 -748
-53 -504 -208 -991 -453 -1427 -535 -954 -1454 -1614 -2537 -1822 -253 -48
-390 -60 -685 -60 -295 0 -432 12 -685 60 -1107 213 -2046 901 -2572 1885
-227 424 -367 880 -418 1368 -21 192 -21 551 0 744 120 1134 741 2137 1698
2743 235 149 548 298 817 387 265 89 626 159 920 180 109 8 398 6 516 -3z"/>
<path d="M6166 10188 c-11 -49 -16 -113 -14 -158 l3 -74 73 -27 c145 -54 182
-92 242 -254 53 -140 63 -159 95 -173 28 -13 94 -16 143 -6 28 6 31 11 40 64
14 77 65 175 151 290 72 97 105 168 99 217 -3 26 -11 30 -135 70 -136 43 -349
91 -530 118 -160 24 -148 28 -167 -67z"/>
<path d="M4525 9860 c-192 -20 -498 -90 -590 -135 -94 -45 -381 -272 -496
-392 l-56 -58 -41 -210 c-210 -1074 -222 -1815 -35 -2151 37 -67 113 -141 170
-166 278 -123 737 184 1185 792 333 452 571 958 660 1402 32 161 32 380 0 493
-79 277 -275 414 -612 429 -58 2 -141 1 -185 -4z"/>
<path d="M8283 9025 c-73 -37 -138 -113 -189 -221 -68 -143 -89 -240 -88 -419
0 -137 3 -157 27 -229 36 -103 67 -154 128 -211 119 -111 291 -138 497 -79 82
24 243 95 339 149 l82 46 -21 57 c-92 247 -267 558 -451 800 -39 51 -85 101
-101 109 -17 9 -62 18 -101 20 -61 4 -77 1 -122 -22z"/>
<path d="M9142 7799 c-33 -54 -116 -127 -175 -154 -44 -21 -67 -25 -152 -25
-166 0 -427 -19 -506 -35 -149 -32 -264 -107 -302 -198 -8 -18 -40 -62 -71
-97 -80 -89 -137 -208 -144 -298 -6 -87 8 -147 66 -287 41 -99 52 -117 116
-180 85 -84 148 -122 281 -171 158 -57 191 -74 236 -118 49 -49 72 -91 94
-176 20 -78 40 -322 40 -490 0 -136 5 -114 -90 -360 -61 -155 -86 -282 -92
-466 -4 -107 -2 -163 5 -168 20 -12 203 223 334 430 269 427 431 877 505 1404
25 179 25 683 0 860 -24 167 -71 398 -99 490 l-24 74 -22 -35z"/>
<path d="M4895 6576 c-16 -7 -66 -18 -110 -25 -96 -14 -143 -37 -169 -80 -26
-45 -38 -189 -26 -305 26 -248 117 -433 270 -546 85 -63 122 -104 159 -178 78
-154 191 -617 226 -925 8 -72 22 -166 30 -207 16 -88 28 -214 55 -594 11 -154
23 -283 27 -287 5 -4 34 -10 65 -13 77 -10 91 5 107 113 7 44 19 103 27 130
17 57 40 76 219 184 125 75 189 125 211 170 9 16 45 116 81 221 77 230 121
323 176 372 22 21 101 66 176 101 75 36 160 76 189 90 116 55 153 117 176 291
18 135 82 332 178 547 80 179 93 238 59 269 -30 27 -97 31 -213 12 -143 -22
-359 -36 -578 -36 -208 0 -224 4 -316 78 -28 22 -142 126 -253 231 -288 274
-350 315 -548 371 -117 32 -171 37 -218 16z"/>
</g>
</svg>
